# xmcd CD database file
#
# Track frame offsets:
#	150
#	22767
#	49726
#	69219
#	94431
#	113752
#	135755
#	162937
#	181947
#	201816
#
# Disc length: 2991 seconds
#
# Revision: 0
# Processed by: cddbd v1.5.2PL0 Copyright (c) Steve Scherf et al.
# Submitted via: CDex 1.51
#
DISCID=760bad0a
DTITLE=The John Dukich Project - Down In Brazil
DYEAR=2012
DGENRE=Jazz
TTITLE0=Down In Brazil
TTITLE1=Final Feliz
TTITLE2=Voce Vai Ver
TTITLE3=Agua De Beber
TTITLE4=Bem Que Se Quis
TTITLE5=Manha De Carnaval
TTITLE6=Contigo Aprendi
TTITLE7=Mais Que Nada
TTITLE8=Encostar Na Tua
TTITLE9=Rio De Janeiro Blue
EXTD=YEAR: 2012
EXTT0=
EXTT1=
EXTT2=
EXTT3=
EXTT4=
EXTT5=
EXTT6=
EXTT7=
EXTT8=
EXTT9=
PLAYORDER=
